REM DIRINDEX 1\2\6,1\2\7,1\2\8,1\2\9,1\3\10,1\3\11,1\4\12,1\4\13,1\4\14,1\5\15,1\5\16,1\5\17
REM DIRNAME cjc020,folder01,folder02,folder03,folder04,folder05,folder06,folder07,folder08,folder09,folder10,folder11,folder12,folder13,folder14,folder15,folder16
TITLE ""
FILE "1900_3_020 sec04_0316_0330.mp3" MP3
  TRACK 01 AUDIO
    TITLE "0:"
    INDEX 01 00:00:00
  TRACK 02 AUDIO
    TITLE "17:cjc020_6601"
    INDEX 01 00:00:17
  TRACK 03 AUDIO
    TITLE "0:"
    INDEX 01 00:01:66
  TRACK 04 AUDIO
    TITLE "16:cjc020_6602"
    INDEX 01 00:01:69
  TRACK 05 AUDIO
    TITLE "0:"
    INDEX 01 00:03:12
  TRACK 06 AUDIO
    TITLE "17:cjc020_6603"
    INDEX 01 00:03:70
  TRACK 07 AUDIO
    TITLE "0:"
    INDEX 01 00:05:12
  TRACK 08 AUDIO
    TITLE "16:cjc020_6604"
    INDEX 01 00:05:14
  TRACK 09 AUDIO
    TITLE "0:"
    INDEX 01 00:06:33
  TRACK 10 AUDIO
    TITLE "17:cjc020_6605"
    INDEX 01 00:07:13
  TRACK 11 AUDIO
    TITLE "0:"
    INDEX 01 00:09:32
  TRACK 12 AUDIO
    TITLE "16:cjc020_6606"
    INDEX 01 00:09:36
  TRACK 13 AUDIO
    TITLE "0:"
    INDEX 01 00:10:53
  TRACK 14 AUDIO
    TITLE "17:cjc020_6607"
    INDEX 01 00:11:39
  TRACK 15 AUDIO
    TITLE "0:"
    INDEX 01 00:12:56
  TRACK 16 AUDIO
    TITLE "16:cjc020_6608"
    INDEX 01 00:12:67
  TRACK 17 AUDIO
    TITLE "0:"
    INDEX 01 00:13:71
  TRACK 18 AUDIO
    TITLE "17:cjc020_6609"
    INDEX 01 00:14:54
  TRACK 19 AUDIO
    TITLE "0:"
    INDEX 01 00:16:69
  TRACK 20 AUDIO
    TITLE "16:cjc020_6610"
    INDEX 01 00:16:73
  TRACK 21 AUDIO
    TITLE "0:"
    INDEX 01 00:17:65
  TRACK 22 AUDIO
    TITLE "17:cjc020_6611"
    INDEX 01 00:18:44
  TRACK 23 AUDIO
    TITLE "0:"
    INDEX 01 00:19:69
  TRACK 24 AUDIO
    TITLE "16:cjc020_6612"
    INDEX 01 00:19:73
  TRACK 25 AUDIO
    TITLE "0:"
    INDEX 01 00:21:09
  TRACK 26 AUDIO
    TITLE "17:cjc020_6613"
    INDEX 01 00:21:70
  TRACK 27 AUDIO
    TITLE "0:"
    INDEX 01 00:23:24
  TRACK 28 AUDIO
    TITLE "16:cjc020_6614"
    INDEX 01 00:23:28
  TRACK 29 AUDIO
    TITLE "0:"
    INDEX 01 00:24:45
  TRACK 30 AUDIO
    TITLE "17:cjc020_6615"
    INDEX 01 00:25:31
  TRACK 31 AUDIO
    TITLE "0:"
    INDEX 01 00:26:60
  TRACK 32 AUDIO
    TITLE "16:cjc020_6616"
    INDEX 01 00:26:64
  TRACK 33 AUDIO
    TITLE "0:"
    INDEX 01 00:28:10
  TRACK 34 AUDIO
    TITLE "17:cjc020_6617"
    INDEX 01 00:28:64
  TRACK 35 AUDIO
    TITLE "0:"
    INDEX 01 00:30:10
  TRACK 36 AUDIO
    TITLE "16:cjc020_6618"
    INDEX 01 00:30:16
  TRACK 37 AUDIO
    TITLE "0:"
    INDEX 01 00:31:37
  TRACK 38 AUDIO
    TITLE "17:cjc020_6619"
    INDEX 01 00:32:23
  TRACK 39 AUDIO
    TITLE "0:"
    INDEX 01 00:33:42
  TRACK 40 AUDIO
    TITLE "16:cjc020_6620"
    INDEX 01 00:33:50
  TRACK 41 AUDIO
    TITLE "0:"
    INDEX 01 00:34:65
  TRACK 42 AUDIO
    TITLE "17:cjc020_6621"
    INDEX 01 00:35:51
  TRACK 43 AUDIO
    TITLE "0:"
    INDEX 01 00:36:66
  TRACK 44 AUDIO
    TITLE "16:cjc020_6622"
    INDEX 01 00:36:72
  TRACK 45 AUDIO
    TITLE "0:"
    INDEX 01 00:38:06
  TRACK 46 AUDIO
    TITLE "17:cjc020_6623"
    INDEX 01 00:38:65
  TRACK 47 AUDIO
    TITLE "0:"
    INDEX 01 00:39:60
  TRACK 48 AUDIO
    TITLE "16:cjc020_6624"
    INDEX 01 00:40:01
  TRACK 49 AUDIO
    TITLE "0:"
    INDEX 01 00:41:00
  TRACK 50 AUDIO
    TITLE "17:cjc020_6625"
    INDEX 01 00:41:61
  TRACK 51 AUDIO
    TITLE "0:"
    INDEX 01 00:43:21
  TRACK 52 AUDIO
    TITLE "16:cjc020_6626"
    INDEX 01 00:43:27
  TRACK 53 AUDIO
    TITLE "0:"
    INDEX 01 00:44:30
  TRACK 54 AUDIO
    TITLE "17:cjc020_6627"
    INDEX 01 00:45:14
  TRACK 55 AUDIO
    TITLE "0:"
    INDEX 01 00:46:35
  TRACK 56 AUDIO
    TITLE "16:cjc020_6628"
    INDEX 01 00:46:43
  TRACK 57 AUDIO
    TITLE "0:"
    INDEX 01 00:47:60
  TRACK 58 AUDIO
    TITLE "17:cjc020_6629"
    INDEX 01 00:48:44
  TRACK 59 AUDIO
    TITLE "0:"
    INDEX 01 00:49:45
  TRACK 60 AUDIO
    TITLE "16:cjc020_6630"
    INDEX 01 00:49:49
  TRACK 61 AUDIO
    TITLE "0:"
    INDEX 01 00:50:54
